<svg width="413" height="35" viewBox="0 0 413 35" fill="none" xmlns="http://www.w3.org/2000/svg">
<path d="M242.68 14V22H241.624V15.024H238.008V18.592C238.008 19.9253 237.752 20.8427 237.24 21.344C236.739 21.8453 236.045 22.064 235.16 22V21.008C235.768 21.072 236.216 20.928 236.504 20.576C236.803 20.224 236.952 19.5627 236.952 18.592V14H242.68ZM251.661 14H252.557V22H251.501V15.84L246.733 22H245.837V14H246.893V20.16L251.661 14ZM259.838 17.888C260.766 18.24 261.23 18.88 261.23 19.808C261.23 20.4693 260.969 21.0347 260.446 21.504C259.934 21.9627 259.198 22.192 258.238 22.192C256.627 22.192 255.571 21.552 255.07 20.272L255.966 19.744C256.297 20.6933 257.054 21.168 258.238 21.168C258.857 21.168 259.331 21.0347 259.662 20.768C260.003 20.5013 260.174 20.16 260.174 19.744C260.174 19.3707 260.035 19.0667 259.758 18.832C259.481 18.5973 259.107 18.48 258.638 18.48H257.47V17.456H258.318C258.777 17.456 259.134 17.344 259.39 17.12C259.657 16.8853 259.79 16.5653 259.79 16.16C259.79 15.776 259.635 15.4613 259.326 15.216C259.017 14.96 258.601 14.832 258.078 14.832C257.075 14.832 256.409 15.232 256.078 16.032L255.198 15.52C255.731 14.3787 256.691 13.808 258.078 13.808C258.921 13.808 259.593 14.032 260.094 14.48C260.595 14.9173 260.846 15.456 260.846 16.096C260.846 16.9173 260.51 17.5147 259.838 17.888ZM269.579 14H270.475V22H269.419V15.84L264.651 22H263.755V14H264.811V20.16L269.579 14ZM279.292 14H280.348V22H279.292V18.512H274.684V22H273.628V14H274.684V17.488H279.292V14ZM288.621 14V15.024H284.557V22H283.501V14H288.621ZM297.219 20.992C296.408 21.792 295.416 22.192 294.243 22.192C293.07 22.192 292.072 21.792 291.251 20.992C290.44 20.1813 290.035 19.184 290.035 18C290.035 16.816 290.44 15.824 291.251 15.024C292.072 14.2133 293.07 13.808 294.243 13.808C295.416 13.808 296.408 14.2133 297.219 15.024C298.04 15.824 298.451 16.816 298.451 18C298.451 19.184 298.04 20.1813 297.219 20.992ZM292.003 20.256C292.611 20.864 293.358 21.168 294.243 21.168C295.128 21.168 295.875 20.864 296.483 20.256C297.091 19.6373 297.395 18.8853 297.395 18C297.395 17.1147 297.091 16.368 296.483 15.76C295.875 15.1413 295.128 14.832 294.243 14.832C293.358 14.832 292.611 15.1413 292.003 15.76C291.395 16.368 291.091 17.1147 291.091 18C291.091 18.8853 291.395 19.6373 292.003 20.256ZM306.226 17.888C307.101 18.208 307.538 18.832 307.538 19.76C307.538 20.4107 307.319 20.9493 306.882 21.376C306.455 21.792 305.837 22 305.026 22H301.138V14H304.706C305.485 14 306.087 14.2027 306.514 14.608C306.941 15.0027 307.154 15.5147 307.154 16.144C307.154 16.944 306.845 17.5253 306.226 17.888ZM304.706 15.024H302.194V17.456H304.706C305.634 17.456 306.098 17.04 306.098 16.208C306.098 15.8347 305.975 15.5467 305.73 15.344C305.495 15.1307 305.154 15.024 304.706 15.024ZM305.026 20.976C305.495 20.976 305.853 20.864 306.098 20.64C306.354 20.416 306.482 20.1013 306.482 19.696C306.482 19.3227 306.354 19.0293 306.098 18.816C305.853 18.592 305.495 18.48 305.026 18.48H302.194V20.976H305.026ZM316.938 14H317.994V22H316.938V20.432C316.202 21.6053 315.125 22.192 313.706 22.192C312.565 22.192 311.589 21.7867 310.778 20.976C309.978 20.1653 309.578 19.1733 309.578 18C309.578 16.8267 309.978 15.8347 310.778 15.024C311.589 14.2133 312.565 13.808 313.706 13.808C315.125 13.808 316.202 14.3947 316.938 15.568V14ZM311.546 20.256C312.154 20.864 312.901 21.168 313.786 21.168C314.671 21.168 315.418 20.864 316.026 20.256C316.634 19.6373 316.938 18.8853 316.938 18C316.938 17.1147 316.634 16.368 316.026 15.76C315.418 15.1413 314.671 14.832 313.786 14.832C312.901 14.832 312.154 15.1413 311.546 15.76C310.938 16.368 310.634 17.1147 310.634 18C310.634 18.8853 310.938 19.6373 311.546 20.256ZM326.91 14V22H325.854V18.928H324.478L322.014 22H320.67L323.198 18.896C322.558 18.8 322.03 18.5333 321.614 18.096C321.198 17.6587 320.99 17.12 320.99 16.48C320.99 15.7547 321.246 15.1627 321.758 14.704C322.281 14.2347 322.915 14 323.662 14H326.91ZM323.662 17.936H325.854V15.024H323.662C323.214 15.024 322.83 15.1573 322.51 15.424C322.201 15.6907 322.046 16.0427 322.046 16.48C322.046 16.9173 322.201 17.2693 322.51 17.536C322.83 17.8027 323.214 17.936 323.662 17.936ZM341.454 22H340.046L336.046 18.144V22H334.99V14H336.046V17.536L339.854 14H341.294L337.166 17.84L341.454 22ZM349.723 20.992C348.913 21.792 347.921 22.192 346.747 22.192C345.574 22.192 344.577 21.792 343.755 20.992C342.945 20.1813 342.539 19.184 342.539 18C342.539 16.816 342.945 15.824 343.755 15.024C344.577 14.2133 345.574 13.808 346.747 13.808C347.921 13.808 348.913 14.2133 349.723 15.024C350.545 15.824 350.955 16.816 350.955 18C350.955 19.184 350.545 20.1813 349.723 20.992ZM344.507 20.256C345.115 20.864 345.862 21.168 346.747 21.168C347.633 21.168 348.379 20.864 348.987 20.256C349.595 19.6373 349.899 18.8853 349.899 18C349.899 17.1147 349.595 16.368 348.987 15.76C348.379 15.1413 347.633 14.832 346.747 14.832C345.862 14.832 345.115 15.1413 344.507 15.76C343.899 16.368 343.595 17.1147 343.595 18C343.595 18.8853 343.899 19.6373 344.507 20.256ZM361.482 14V22H360.426V15.616L357.626 20.16H357.498L354.698 15.616V22H353.642V14H354.858L357.562 18.384L360.266 14H361.482ZM371.361 14V22H370.305V15.024H365.697V22H364.641V14H371.361ZM381.394 14H382.45V22H381.394V20.432C380.658 21.6053 379.58 22.192 378.162 22.192C377.02 22.192 376.044 21.7867 375.234 20.976C374.434 20.1653 374.034 19.1733 374.034 18C374.034 16.8267 374.434 15.8347 375.234 15.024C376.044 14.2133 377.02 13.808 378.162 13.808C379.58 13.808 380.658 14.3947 381.394 15.568V14ZM376.002 20.256C376.61 20.864 377.356 21.168 378.242 21.168C379.127 21.168 379.874 20.864 380.482 20.256C381.09 19.6373 381.394 18.8853 381.394 18C381.394 17.1147 381.09 16.368 380.482 15.76C379.874 15.1413 379.127 14.832 378.242 14.832C377.356 14.832 376.61 15.1413 376.002 15.76C375.394 16.368 375.09 17.1147 375.09 18C375.09 18.8853 375.394 19.6373 376.002 20.256ZM391.27 14H392.326V22H391.27V18.512H386.662V22H385.606V14H386.662V17.488H391.27V14ZM401.303 14H402.199V22H401.143V15.84L396.375 22H395.479V14H396.535V20.16L401.303 14ZM411.112 14V22H410.056V18.928H408.68L406.216 22H404.872L407.4 18.896C406.76 18.8 406.232 18.5333 405.816 18.096C405.4 17.6587 405.192 17.12 405.192 16.48C405.192 15.7547 405.448 15.1627 405.96 14.704C406.483 14.2347 407.117 14 407.864 14H411.112ZM407.864 17.936H410.056V15.024H407.864C407.416 15.024 407.032 15.1573 406.712 15.424C406.403 15.6907 406.248 16.0427 406.248 16.48C406.248 16.9173 406.403 17.2693 406.712 17.536C407.032 17.8027 407.416 17.936 407.864 17.936Z" fill="#111111" fill-opacity="0.5"/>
<rect x="217" y="2" width="1" height="30" fill="#C4C4C4"/>
<path d="M0 27.1001H18.6313V21.0779H6.21045V1.88195H0V27.1001Z" fill="#FF9514"/>
<path d="M29.2356 7.71601C23.4391 7.71601 19.3741 12.0445 19.3741 17.6904C19.3741 22.9598 22.6864 27.6647 29.1226 27.6647C33.6017 27.6647 37.4785 25.3687 38.683 21.0779H32.6231C32.0209 22.0189 30.4776 22.6211 29.0474 22.5082C26.8643 22.32 25.6222 21.0402 25.2458 19.61H38.7959C39.5487 12.7596 35.5213 7.71601 29.2356 7.71601ZM29.1979 12.8349C31.0422 12.8349 32.5102 13.7006 33.0371 15.2815H25.3211C25.848 13.7759 27.316 12.8349 29.1979 12.8349Z" fill="#FF9514"/>
<path d="M54.7842 10.5766H54.6337C53.5045 8.9581 51.4344 7.71601 48.8373 7.71601C43.6807 7.71601 40.1427 11.9692 40.1427 17.7656C40.1427 23.7126 43.9066 27.6647 48.8373 27.6647C51.4344 27.6647 53.5045 26.4226 54.6337 24.8041H54.7842V27.1001H60.5807V8.2806H54.7842V10.5766ZM50.4181 22.1694C47.9339 22.1694 46.052 20.3251 46.052 17.6904C46.052 15.0556 47.9339 13.2113 50.4181 13.2113C52.9399 13.2113 54.7842 15.1309 54.7842 17.6904C54.7842 20.1369 53.0152 22.1694 50.4181 22.1694Z" fill="#FF9514"/>
<path d="M68.928 8.2806C65.3147 8.2806 62.4917 10.6519 62.4917 14.077C62.4917 16.6365 64.4866 18.5937 67.2719 19.1959L74.1222 20.6638C74.3857 20.7391 74.461 20.9273 74.461 21.0779C74.461 21.2661 74.3104 21.4543 74.0469 21.4543H63.2822V27.1001H74.0846C77.6979 27.1001 80.5961 24.6912 80.5961 21.2284C80.5961 18.5561 78.6765 16.5612 75.7783 15.9966L69.0409 14.6792C68.8527 14.6416 68.7022 14.4534 68.7022 14.3028C68.7022 14.1146 68.8527 13.9265 69.1162 13.9265H79.2411V8.2806H68.928Z" fill="#FF9514"/>
<path d="M82.5095 0V6.21045H88.3436V0H82.5095ZM82.5095 8.2806V27.1001H88.3436V8.2806H82.5095Z" fill="#FF9514"/>
<path d="M102.767 7.75365C100.66 7.75365 98.6646 8.69462 97.4226 10.426H97.272V8.2806H91.5885V27.1001H97.4226V17.1634C97.4226 14.8298 99.2292 13.5124 100.961 13.5124C102.504 13.5124 104.122 14.5663 104.122 16.9752V27.1001H109.956V16.1848C109.956 10.6895 107.246 7.75365 102.767 7.75365Z" fill="#FF9514"/>
<path d="M126.35 10.5766H126.199C125.07 8.9581 123 7.71601 120.403 7.71601C115.246 7.71601 111.708 11.9692 111.708 17.7656C111.708 23.7126 115.472 27.6647 120.403 27.6647C123 27.6647 125.07 26.4226 126.199 24.8041H126.35V27.5518C126.35 28.3046 125.785 28.7562 124.995 28.7562H114.193V34.6279H126.425C130.039 34.6279 132.146 32.6707 132.146 29.095V8.2806H126.35V10.5766ZM121.984 22.1694C119.5 22.1694 117.618 20.3251 117.618 17.6904C117.618 15.0556 119.5 13.2113 121.984 13.2113C124.506 13.2113 126.35 15.1309 126.35 17.6904C126.35 20.1369 124.581 22.1694 121.984 22.1694Z" fill="#FF9514"/>
<path d="M154.223 16.599C153.546 19.6477 151.062 21.5673 147.712 21.5673C143.308 21.5673 140.937 18.2174 140.937 14.4912C140.937 10.6896 143.346 7.49031 147.636 7.41504C151.062 7.33976 153.358 9.33463 154.073 12.1199H160.509C159.794 6.06003 154.825 1.3175 147.712 1.3175C139.732 1.3175 134.613 7.26448 134.613 14.5665C134.613 21.7932 139.732 27.6649 147.712 27.6649C155.014 27.6649 159.944 22.8847 160.584 16.599H154.223Z" fill="#111111"/>
<path d="M176.633 10.5767H176.483C175.354 8.95824 173.284 7.71615 170.687 7.71615C165.53 7.71615 161.992 11.9694 161.992 17.7658C161.992 23.7128 165.756 27.6649 170.687 27.6649C173.284 27.6649 175.354 26.4228 176.483 24.8043H176.633V27.1003H182.43V8.28074H176.633V10.5767ZM172.267 22.1695C169.783 22.1695 167.901 20.3252 167.901 17.6905C167.901 15.0558 169.783 13.2115 172.267 13.2115C174.789 13.2115 176.633 15.131 176.633 17.6905C176.633 20.137 174.864 22.1695 172.267 22.1695Z" fill="#111111"/>
<path d="M195.323 8.28074C193.403 8.28074 191.86 9.40991 191.333 11.1037H191.182V8.28074H185.65V27.1003H191.484V17.5776C191.484 15.5827 192.951 14.1148 194.946 14.1148H199.501V8.28074H195.323Z" fill="#111111"/>
</svg>
